Coordinates
version=1
nRows=4
nColumns=40
inDegrees=yes

Units are S.I. units (second, meters, Newtons, ...)
If the header above contains a line with 'inDegrees', this indicates whether rotational values are in degrees (yes) or radians (no).

endheader
time	pelvis_tilt	pelvis_list	pelvis_rotation	pelvis_tx	pelvis_ty	pelvis_tz	hip_flexion_r	hip_adduction_r	hip_rotation_r	knee_angle_r	knee_angle_r_beta	ankle_angle_r	subtalar_angle_r	mtp_angle_r	hip_flexion_l	hip_adduction_l	hip_rotation_l	knee_angle_l	knee_angle_l_beta	ankle_angle_l	subtalar_angle_l	mtp_angle_l	lumbar_extension	lumbar_bending	lumbar_rotation	arm_flex_r	arm_add_r	arm_rot_r	elbow_flex_r	pro_sup_r	wrist_flex_r	wrist_dev_r	arm_flex_l	arm_add_l	arm_rot_l	elbow_flex_l	pro_sup_l	wrist_flex_l	wrist_dev_l
      5.44000000000000039080	     53.98689274250379810383	     -0.04473324306080057877	   -178.11595046320786650540	      0.41107435406036102465	      0.73317994976114109207	     -0.61474208362733062661	     96.79206369376686325268	     -9.69028946213762765183	     -3.19944199894421643648	     43.41293180550122343675	      0.75769859794976290868	      2.33293868732783726827	      0.00000000000000000000	      0.00000000000000000000	     95.22262877166805594698	     -5.33178254708267829187	     -2.87315821574374563596	     40.92338907349243726230	      0.71424788040711473247	      0.68592516223876887071	      0.00000000000000000000	      0.00000000000000000000	    -21.47831107935649086471	      2.14169551382935319239	      1.30333235972829530880	     64.89519219533347893503	     -8.07795300807121385844	     39.44568315188107732183	      0.97351869096525156522	     86.36547299192277193924	      0.00000000000000000000	      0.00000000000000000000	     55.36087424059279271660	     -1.10511373044963323586	     37.26790775998845361983	      0.58605622995862249880	      2.54942117131774681482	      0.00000000000000000000	      0.00000000000000000000
      5.44500000000000028422	     53.85853555541544324115	     -0.03106754153271743674	   -178.04452360547475109342	      0.41057648363776083622	      0.73470986741298349720	     -0.61446442369468545763	     96.40744875477017217236	     -9.77997179694167861896	     -3.29760182316779504319	     43.07761075805281336670	      0.75184614162055196651	      2.20313747578563257079	      0.00000000000000000000	      0.00000000000000000000	     94.80810720679453140747	     -5.25481119953356046182	     -2.98096419091144859692	     40.49132562033275917202	      0.70670695057194210520	      0.50339571523994275370	      0.00000000000000000000	      0.00000000000000000000	    -21.58769593929752872441	      2.17610941015563152945	      1.23725129934573829793	     64.77053106798703652203	     -8.09599053970664961355	     39.84708097826761274973	      0.97333844270973346458	     86.39420356114169408102	      0.00000000000000000000	      0.00000000000000000000	     55.06997012220580245412	     -1.15104951451473525026	     38.63710393447386337584	      0.58408416914378180618	      2.54894276974764677490	      0.00000000000000000000	      0.00000000000000000000
      5.45000000000000017764	     54.09672754705910335815	     -0.27969969168576741536	   -177.70404165157259512853	      0.41091163972156813378	      0.73598648552943879420	     -0.61332253780366552398	     96.49488966652006638469	    -10.14766676249142740573	     -2.99587614833279447524	     42.65215128578986281127	      0.74442047299576608044	      1.85023405629753967538	      0.00000000000000000000	      0.00000000000000000000	     94.69699008284653984902	     -5.03458364091132448692	     -3.59996516406075039995	     40.04330382889435924199	      0.69888749519065862525	      0.08408745548946834625	      0.00000000000000000000	      0.00000000000000000000	    -21.28694886010786291308	      2.05663856423698065967	      0.80723291337925728861	     64.63215560718292351794	     -8.11485067726952458145	     40.34880401635656710368	      0.96590235429451409832	     86.35127893893377404311	      0.00000000000000000000	      0.00000000000000000000	     54.92057026650785900301	     -1.15032609707057065229	     38.81307898491103713923	      0.58602483834260132856	      2.57269245236674359845	      0.00000000000000000000	      0.00000000000000000000
      5.45500000000000007105	     53.94695003589686166379	      0.04720278109384545839	   -177.78969444561028012686	      0.41035606030851423665	      0.73737749372639371792	     -0.61381261201379055947	     95.98814018516759460908	     -9.97767652290502837786	     -3.31763237084497397689	     42.26318782815326358104	      0.73763177999006590557	      1.79106299129853696606	      0.00000000000000000000	      0.00000000000000000000	     94.36349268451637328781	     -5.10891742548152283376	     -3.15177361858011151341	     39.70861716919741013498	      0.69304611101644508775	      0.03105607275499340167	      0.00000000000000000000	      0.00000000000000000000	    -21.39471380769803587896	      2.30553772290421532531	      0.98521254767981458755	     64.49930083418023230024	     -8.09386400172532383124	     40.49821286357864380534	      0.95587718879112648640	     86.36262137100059987915	      0.00000000000000000000	      0.00000000000000000000	     54.78194505083003207346	     -1.17905041021377954280	     39.03565903933166225670	      0.58598749449665987754	      2.56857315363842708678	      0.00000000000000000000	      0.00000000000000000000
